<?xml version="1.0" encoding="UTF-8" standalone="no"?><!-- Generator: Gravit.io --><svg xmlns="http://www.w3.org/2000/svg" xmlns:xlink="http://www.w3.org/1999/xlink" style="isolation:isolate" viewBox="0 0 761 731.12" width="761pt" height="731.12pt"><defs><clipPath id="_clipPath_GgK49JQBVGuCsP5Fns85ZjgUchhvnQF4"><rect width="761" height="731.12"/></clipPath></defs><g clip-path="url(#_clipPath_GgK49JQBVGuCsP5Fns85ZjgUchhvnQF4)"><clipPath id="_clipPath_ewMbbIa7Al9K6yqVmFHSJXpSRhHMHbeU"><rect x="0" y="0" width="761" height="731.12" transform="matrix(1,0,0,1,0,0)" fill="rgb(255,255,255)"/></clipPath><g clip-path="url(#_clipPath_ewMbbIa7Al9K6yqVmFHSJXpSRhHMHbeU)"><g><path d=" M 539.19 499.1 L 539.19 457.1 L 602.19 457.1 L 665.19 457.1 L 665.19 499.1 L 665.19 541.1 L 602.19 541.1 L 539.19 541.1 L 539.19 499.1 L 539.19 499.1 Z  M 529.19 499.1 L 529.19 447.1 L 602.19 447.1 L 675.19 447.1 L 675.19 499.1 L 675.19 551.1 L 602.19 551.1 L 529.19 551.1 L 529.19 499.1 Z " fill-rule="evenodd" fill="rgb(0,0,0)"/><path d=" M 596.25 1 L 725.75 1 C 745.205 1 761 16.795 761 36.25 L 761 115.75 C 761 135.205 745.205 151 725.75 151 L 596.25 151 C 576.795 151 561 135.205 561 115.75 L 561 36.25 C 561 16.795 576.795 1 596.25 1 Z  M 596.25 11 L 725.75 11 C 732.44 11 738.87 13.66 743.6 18.4 C 748.34 23.13 751 29.56 751 36.25 L 751 115.75 C 751 122.44 748.34 128.87 743.6 133.6 C 738.87 138.34 732.44 141 725.75 141 L 596.25 141 C 589.56 141 583.13 138.34 578.4 133.6 C 573.66 128.87 571 122.44 571 115.75 L 571 36.25 C 571 29.56 573.66 23.13 578.4 18.4 C 583.13 13.66 589.56 11 596.25 11 Z " fill-rule="evenodd" fill="rgb(0,0,0)"/><path d=" M 562 57.213 C 561.957 57.185 561.914 57.158 561.87 57.13 C 547.56 48.05 532.66 39.94 517.27 32.84 C 502.08 25.81 486.43 19.84 470.43 14.95 C 454.81 10.17 438.87 6.56 422.72 4.15 C 417.71 3.42 412.69 2.76 407.66 2.16 C 403.3 1.64 398.93 1.23 394.55 0.9 C 390.17 0.59 385.78 0.36 381.38 0.23 C 376.29 0.09 371.19 0.01 366.1 0 C 358.06 -0.01 350.02 0.21 342 0.65 C 334.38 1.07 326.78 1.73 319.2 2.64 C 304.67 4.36 290.28 7.08 276.13 10.76 C 255.61 16.12 235.57 23.15 216.2 31.77 C 197.27 40.21 179.09 50.22 161.85 61.72 C 144.76 73.13 128.68 85.98 113.79 100.15 C 98.78 114.44 85.03 129.98 72.68 146.61 C 50.85 175.87 33.47 208.2 21.11 242.54 C 15.02 259.47 10.2 276.83 6.7 294.47 C 3.23 311.99 1.12 329.75 0.39 347.6 C 0.14 353.98 0 360.37 0 366.76 C -0.01 374.56 0.22 382.35 0.69 390.14 C 1.15 397.66 1.87 405.17 2.84 412.64 C 3.82 420.14 5.05 427.6 6.53 435.01 C 8.08 442.71 9.85 450.37 11.85 457.97 C 17.1 478.14 24.09 497.81 32.76 516.77 C 41.53 535.95 51.9 554.36 63.75 571.81 C 75.41 588.95 88.54 605.05 102.99 619.93 C 117.41 634.78 133.07 648.39 149.79 660.6 C 166.53 672.83 184.27 683.62 202.83 692.85 C 221.44 702.12 240.82 709.76 260.75 715.69 C 266.99 717.58 273.27 719.33 279.58 720.93 C 285.5 722.41 291.47 723.71 297.47 724.83 C 303.86 726 310.28 727 316.72 727.83 C 324.39 728.8 332.06 729.66 339.75 730.38 L 339.75 730.38 C 340.52 730.44 341.28 730.48 342.05 730.48 C 343.44 730.51 344.83 730.54 346.22 730.56 C 350.91 730.63 355.61 730.69 360.31 730.72 C 374.87 730.85 389.43 730.9 403.98 730.9 L 469.19 731.12 L 469.19 541.6 L 469.19 362.1 L 579.69 362.1 L 700.19 362.1 L 700.19 316.1 L 700.19 270.1 L 538.19 270.1 L 376.19 270.1 L 376.19 460.2 L 376.19 640.09 L 364.19 639.6 C 364.18 639.6 364.17 639.6 364.15 639.6 C 357.48 639.38 350.81 639.05 344.15 638.61 C 338.76 638.25 333.39 637.73 328.04 637.05 C 323.02 636.4 318.02 635.57 313.05 634.57 C 307.44 633.42 301.86 632.15 296.31 630.75 C 287.88 628.64 279.57 626.07 271.41 623.05 C 263.04 619.96 254.82 616.45 246.8 612.52 C 238.55 608.49 230.51 604.06 222.68 599.26 C 214.65 594.33 206.85 589.04 199.3 583.4 C 197.58 582.1 195.89 580.75 194.24 579.36 C 192.19 577.63 190.16 575.88 188.16 574.09 C 183.52 569.94 178.96 565.69 174.5 561.35 C 169.99 556.99 165.57 552.53 161.24 547.99 C 159.35 546.01 157.48 543.99 155.65 541.95 C 154.15 540.29 152.69 538.59 151.28 536.85 C 144.79 528.76 138.8 520.28 133.37 511.44 C 127.71 502.29 122.57 492.82 117.96 483.09 C 113.35 473.41 109.29 463.47 105.79 453.33 C 102.43 443.63 99.69 433.73 97.58 423.68 C 95.54 413.84 93.97 403.91 92.89 393.91 C 91.86 384.32 91.33 374.68 91.33 365.03 C 91.33 353.38 92.11 341.75 93.65 330.21 C 95.26 318.26 97.59 306.42 100.63 294.75 C 102.9 285.91 105.65 277.2 108.88 268.66 C 112.16 259.94 115.9 251.4 120.06 243.07 C 128.42 226.29 138.49 210.42 150.1 195.71 C 151.28 194.24 152.48 192.8 153.72 191.39 C 155.25 189.63 156.8 187.9 158.37 186.19 C 162.03 182.21 165.76 178.3 169.55 174.46 C 173.41 170.53 177.34 166.66 181.33 162.87 C 183.12 161.17 184.92 159.49 186.74 157.84 C 188.27 156.44 189.83 155.07 191.41 153.72 C 198.7 147.61 206.35 141.95 214.32 136.76 C 222.67 131.29 231.31 126.26 240.18 121.69 C 249.05 117.11 258.15 112.99 267.44 109.36 C 276.29 105.88 285.34 102.93 294.54 100.54 C 306.36 97.49 318.35 95.17 330.44 93.58 C 342.2 92.04 354.04 91.26 365.9 91.26 C 380.71 91.26 395.5 92.49 410.11 94.92 C 425.1 97.44 439.88 101.12 454.3 105.94 C 461.45 108.36 468.48 111.13 475.36 114.24 C 482.81 117.59 490.12 121.22 497.28 125.15 C 504.47 129.08 511.51 133.29 518.37 137.77 C 524.78 141.94 530.98 146.42 536.95 151.19 C 538.91 152.79 540.84 154.43 542.72 156.13 C 544.96 158.13 547.16 160.18 549.33 162.26 C 554.2 166.92 558.96 171.7 563.61 176.59 C 568.18 181.37 572.63 186.26 576.97 191.26 C 578.83 193.41 580.65 195.59 582.44 197.81 C 583.89 199.6 585.28 201.43 586.62 203.3 L 597.11 218.1 L 645.99 218.1 C 656.88 218.11 667.77 218.07 678.66 217.96 C 681.99 217.94 685.32 217.88 688.66 217.8 C 689.6 217.78 690.54 217.75 691.49 217.7 C 691.81 217.69 692.13 217.66 692.45 217.63 C 692.56 217.62 692.67 217.61 692.78 217.59 C 693.98 217.44 695.08 216.86 695.89 215.97 C 696.7 215.07 697.16 213.91 697.19 212.71 C 697.2 211.94 697.05 211.19 696.76 210.48 C 696.68 210.27 696.6 210.07 696.51 209.86 C 696.24 209.23 695.96 208.6 695.68 207.98 C 694.83 206.16 693.96 204.35 693.06 202.55 C 683.816 184.186 673.082 166.61 660.979 150 L 648.522 150 C 662.109 167.883 674.026 186.983 684.12 207.05 C 684.26 207.33 684.4 207.61 684.54 207.89 L 684.54 207.89 C 682.55 207.92 680.56 207.95 678.57 207.96 C 667.71 208.07 656.85 208.11 646 208.1 C 645.99 208.1 645.99 208.1 645.99 208.1 L 602.27 208.1 L 594.77 197.51 C 594.77 197.5 594.76 197.5 594.76 197.49 C 593.31 195.46 591.79 193.47 590.22 191.53 C 588.36 189.22 586.46 186.95 584.52 184.71 C 580.09 179.59 575.53 174.58 570.85 169.69 C 566.1 164.69 561.23 159.81 556.25 155.04 C 554 152.88 551.72 150.77 549.4 148.69 C 547.39 146.88 545.33 145.12 543.23 143.41 C 536.99 138.42 530.52 133.75 523.83 129.4 C 516.75 124.77 509.5 120.43 502.08 116.38 C 494.69 112.33 487.15 108.57 479.47 105.12 C 472.29 101.88 464.95 98.99 457.48 96.46 C 442.56 91.48 427.27 87.66 411.76 85.06 C 396.6 82.53 381.26 81.26 365.9 81.26 C 353.61 81.26 341.33 82.07 329.14 83.66 C 316.64 85.3 304.25 87.71 292.04 90.86 C 282.45 93.35 273.01 96.42 263.79 100.05 C 254.18 103.81 244.77 108.07 235.6 112.81 C 226.42 117.53 217.49 122.73 208.85 128.39 C 200.54 133.8 192.57 139.71 184.97 146.08 C 183.29 147.5 181.64 148.96 180.01 150.44 C 178.13 152.15 176.28 153.87 174.44 155.62 C 170.37 159.49 166.37 163.43 162.43 167.44 C 158.55 171.37 154.75 175.36 151.01 179.42 C 149.38 181.2 147.77 182.99 146.19 184.81 C 144.85 186.34 143.55 187.9 142.28 189.49 C 130.23 204.75 119.79 221.21 111.12 238.6 C 106.8 247.24 102.93 256.09 99.52 265.13 C 96.17 274 93.31 283.06 90.95 292.25 C 87.81 304.3 85.4 316.53 83.74 328.88 C 82.14 340.86 81.33 352.94 81.33 365.03 C 81.33 375.04 81.88 385.04 82.95 394.99 C 84.07 405.3 85.68 415.56 87.8 425.72 C 89.99 436.18 92.84 446.5 96.34 456.6 C 99.96 467.09 104.16 477.36 108.92 487.38 C 113.69 497.44 119.01 507.22 124.86 516.69 C 130.52 525.89 136.74 534.72 143.5 543.15 C 145.03 545.02 146.6 546.85 148.22 548.64 C 150.11 550.75 152.04 552.84 154 554.89 C 158.42 559.53 162.93 564.08 167.53 568.53 C 172.1 572.96 176.75 577.3 181.49 581.54 C 183.57 583.4 185.67 585.22 187.8 587.01 C 189.59 588.52 191.42 589.98 193.28 591.4 C 201.09 597.22 209.15 602.69 217.45 607.79 C 225.55 612.75 233.87 617.33 242.41 621.5 C 250.73 625.58 259.26 629.23 267.95 632.44 C 276.44 635.57 285.09 638.25 293.87 640.45 C 299.57 641.89 305.3 643.19 311.07 644.37 C 316.27 645.41 321.5 646.28 326.76 646.97 C 332.32 647.68 337.9 648.22 343.49 648.59 C 350.25 649.04 357.03 649.37 363.81 649.6 L 386.19 650.51 L 386.19 460.2 L 386.19 280.1 L 538.19 280.1 L 690.19 280.1 L 690.19 316.1 L 690.19 352.1 L 579.69 352.1 L 459.19 352.1 L 459.19 541.6 L 459.19 721.08 L 404.01 720.9 C 404 720.9 403.99 720.9 403.99 720.9 C 389.46 720.9 374.92 720.85 360.39 720.73 C 355.72 720.69 351.04 720.63 346.37 720.56 C 344.97 720.54 343.58 720.51 342.18 720.48 C 341.66 720.48 341.14 720.46 340.62 720.42 C 333.07 719.71 325.52 718.87 317.99 717.91 C 311.73 717.11 305.49 716.14 299.29 715 C 293.5 713.92 287.74 712.66 282.03 711.23 C 275.85 709.67 269.72 707.96 263.63 706.11 C 244.24 700.35 225.39 692.92 207.28 683.9 C 189.23 674.92 171.97 664.42 155.69 652.52 C 139.42 640.65 124.19 627.41 110.16 612.96 C 96.12 598.5 83.36 582.85 72.03 566.19 C 60.49 549.2 50.39 531.28 41.85 512.61 C 33.43 494.18 26.63 475.05 21.53 455.43 C 19.58 448.02 17.84 440.56 16.34 433.05 C 14.9 425.86 13.7 418.62 12.75 411.35 C 11.81 404.11 11.12 396.83 10.67 389.53 C 10.21 381.95 9.99 374.36 10 366.77 C 10 360.51 10.13 354.25 10.39 348 C 11.09 330.67 13.14 313.43 16.51 296.41 C 19.91 279.26 24.6 262.39 30.52 245.93 C 42.55 212.51 59.46 181.05 80.7 152.59 C 92.71 136.41 106.09 121.29 120.68 107.39 C 135.15 93.62 150.79 81.13 167.4 70.03 C 184.17 58.85 201.85 49.11 220.26 40.91 C 239.14 32.51 258.66 25.66 278.65 20.44 C 292.37 16.87 306.31 14.24 320.38 12.56 C 327.75 11.69 335.14 11.05 342.55 10.64 C 350.39 10.2 358.23 9.99 366.08 10 C 371.09 10.01 376.09 10.09 381.09 10.23 C 385.34 10.35 389.59 10.57 393.83 10.87 C 398.05 11.19 402.27 11.59 406.48 12.09 C 411.42 12.67 416.34 13.33 421.26 14.05 C 436.91 16.38 452.37 19.88 467.5 24.51 C 483.07 29.27 498.3 35.08 513.08 41.91 C 528.07 48.83 542.58 56.74 556.52 65.58 C 558.358 66.744 560.184 67.924 562 69.12 L 562 57.213 L 562 57.213 Z " fill-rule="evenodd" fill="rgb(0,0,0)"/><clipPath id="_clipPath_riKakyCNOsOzIEln6hFxvYNJTULkIxcA"><rect x="592.5" y="20.527" width="139" height="108.945" transform="matrix(1,0,0,1,0,0)" fill="rgb(255,255,255)"/></clipPath><g clip-path="url(#_clipPath_riKakyCNOsOzIEln6hFxvYNJTULkIxcA)"><g/></g></g></g><path d=" M 615.391 70.371 L 615.391 70.371 L 615.391 70.371 Q 624.023 70.371 629.063 74.941 L 629.063 74.941 L 629.063 74.941 Q 634.102 79.512 634.102 87.402 L 634.102 87.402 L 634.102 87.402 Q 634.102 96.543 628.379 101.68 L 628.379 101.68 L 628.379 101.68 Q 622.656 106.816 612.109 106.816 L 612.109 106.816 L 612.109 106.816 Q 602.539 106.816 597.07 103.73 L 597.07 103.73 L 597.07 95.41 L 597.07 95.41 Q 600.234 97.207 604.336 98.183 L 604.336 98.183 L 604.336 98.183 Q 608.438 99.16 611.953 99.16 L 611.953 99.16 L 611.953 99.16 Q 618.164 99.16 621.406 96.387 L 621.406 96.387 L 621.406 96.387 Q 624.648 93.613 624.648 88.262 L 624.648 88.262 L 624.648 88.262 Q 624.648 78.027 611.602 78.027 L 611.602 78.027 L 611.602 78.027 Q 609.766 78.027 607.07 78.398 L 607.07 78.398 L 607.07 78.398 Q 604.375 78.769 602.344 79.238 L 602.344 79.238 L 598.242 76.816 L 600.43 48.926 L 630.117 48.926 L 630.117 57.09 L 608.516 57.09 L 607.227 71.23 L 607.227 71.23 Q 608.594 70.996 610.566 70.683 L 610.566 70.683 L 610.566 70.683 Q 612.539 70.371 615.391 70.371 Z  M 680.391 77.48 L 680.391 77.48 L 680.391 77.48 Q 680.391 92.363 675.605 99.59 L 675.605 99.59 L 675.605 99.59 Q 670.82 106.816 660.977 106.816 L 660.977 106.816 L 660.977 106.816 Q 651.445 106.816 646.523 99.355 L 646.523 99.355 L 646.523 99.355 Q 641.602 91.894 641.602 77.48 L 641.602 77.48 L 641.602 77.48 Q 641.602 62.363 646.387 55.195 L 646.387 55.195 L 646.387 55.195 Q 651.172 48.027 660.977 48.027 L 660.977 48.027 L 660.977 48.027 Q 670.547 48.027 675.469 55.527 L 675.469 55.527 L 675.469 55.527 Q 680.391 63.027 680.391 77.48 Z  M 650.898 77.48 L 650.898 77.48 L 650.898 77.48 Q 650.898 89.16 653.301 94.16 L 653.301 94.16 L 653.301 94.16 Q 655.703 99.16 660.977 99.16 L 660.977 99.16 L 660.977 99.16 Q 666.25 99.16 668.691 94.082 L 668.691 94.082 L 668.691 94.082 Q 671.133 89.004 671.133 77.48 L 671.133 77.48 L 671.133 77.48 Q 671.133 65.996 668.691 60.859 L 668.691 60.859 L 668.691 60.859 Q 666.25 55.723 660.977 55.723 L 660.977 55.723 L 660.977 55.723 Q 655.703 55.723 653.301 60.762 L 653.301 60.762 L 653.301 60.762 Q 650.898 65.801 650.898 77.48 Z  M 726.055 77.48 L 726.055 77.48 L 726.055 77.48 Q 726.055 92.363 721.27 99.59 L 721.27 99.59 L 721.27 99.59 Q 716.484 106.816 706.641 106.816 L 706.641 106.816 L 706.641 106.816 Q 697.109 106.816 692.188 99.355 L 692.188 99.355 L 692.188 99.355 Q 687.266 91.894 687.266 77.48 L 687.266 77.48 L 687.266 77.48 Q 687.266 62.363 692.051 55.195 L 692.051 55.195 L 692.051 55.195 Q 696.836 48.027 706.641 48.027 L 706.641 48.027 L 706.641 48.027 Q 716.211 48.027 721.133 55.527 L 721.133 55.527 L 721.133 55.527 Q 726.055 63.027 726.055 77.48 Z  M 696.563 77.48 L 696.563 77.48 L 696.563 77.48 Q 696.563 89.16 698.965 94.16 L 698.965 94.16 L 698.965 94.16 Q 701.367 99.16 706.641 99.16 L 706.641 99.16 L 706.641 99.16 Q 711.914 99.16 714.355 94.082 L 714.355 94.082 L 714.355 94.082 Q 716.797 89.004 716.797 77.48 L 716.797 77.48 L 716.797 77.48 Q 716.797 65.996 714.355 60.859 L 714.355 60.859 L 714.355 60.859 Q 711.914 55.723 706.641 55.723 L 706.641 55.723 L 706.641 55.723 Q 701.367 55.723 698.965 60.762 L 698.965 60.762 L 698.965 60.762 Q 696.563 65.801 696.563 77.48 Z " fill-rule="evenodd" fill="rgb(0,0,0)"/></g></svg>