<?xml version="1.0" encoding="UTF-8" standalone="no"?><!-- Generator: Gravit.io --><svg xmlns="http://www.w3.org/2000/svg" xmlns:xlink="http://www.w3.org/1999/xlink" style="isolation:isolate" viewBox="0 0 143.571 150" width="143.571pt" height="150pt"><defs><clipPath id="_clipPath_yj9F11LQV5rFjLAtBBBBAJDkNAXO6XCj"><rect width="143.571" height="150"/></clipPath></defs><g clip-path="url(#_clipPath_yj9F11LQV5rFjLAtBBBBAJDkNAXO6XCj)"><g><path d=" M 69.725 149.854 C 62.632 149.168 59.033 148.502 53.5 146.838 C 37.108 141.971 22.651 131.403 13.083 117.321 C 8.173 110.082 4.575 102.219 2.432 93.961 C 0.414 86.264 -0.251 79.691 0.082 71.308 C 0.664 56.726 5.885 42.186 14.913 30.079 C 25.148 16.308 39.542 6.698 56.662 2.205 C 62.403 0.707 68.29 0 75.113 0 C 79.814 0.021 82.123 0.187 86.741 0.853 C 99.742 2.767 113.117 8.945 123.684 17.889 C 131.194 24.234 137.601 32.43 142.198 41.562 C 142.614 42.394 142.947 43.122 142.947 43.184 C 142.947 43.246 138.62 43.288 133.336 43.288 L 123.705 43.288 L 121.833 40.646 C 119.815 37.796 114.345 32.055 111.308 29.601 C 106.523 25.752 99.513 21.925 93.793 20.011 C 82.581 16.288 71.473 15.913 59.969 18.867 C 52.439 20.802 44.056 25.128 38.107 30.141 C 35.673 32.201 31.138 36.798 29.37 39.024 C 24.482 45.202 20.779 52.607 18.886 60.012 C 16.494 69.269 16.286 77.819 18.241 87.304 C 19.947 95.562 24.253 104.632 29.62 111.288 C 31.762 113.93 37.192 119.193 39.792 121.148 C 46.261 125.974 53.271 129.406 60.344 131.175 C 65.523 132.464 68.311 132.818 74.676 133.047 L 78.254 133.192 L 78.254 94.689 L 78.254 56.185 L 110.912 56.185 L 143.571 56.185 L 143.571 64.714 L 143.571 73.242 L 119.545 73.242 L 95.519 73.242 L 95.519 111.621 L 95.519 150 L 82.997 149.958 C 76.091 149.958 70.12 149.896 69.725 149.854 Z " fill="rgb(255,255,255)"/></g><g><path d=" M 111.12 102.78 L 111.12 94.044 L 124.225 94.044 L 137.33 94.044 L 137.33 102.78 L 137.33 111.517 L 124.225 111.517 L 111.12 111.517 L 111.12 102.78 Z " fill="rgb(255,255,255)"/></g></g></svg>